<?xml version="1.0" encoding="UTF-8" standalone="no"?>
<!-- Created with Inkscape (http://www.inkscape.org/) -->

<svg
   width="135.20209mm"
   height="135.2562mm"
   viewBox="0 0 135.20209 135.2562"
   version="1.1"
   id="svg1"
   xml:space="preserve"
   inkscape:version="1.4.4 (1:1.4.4+202605061436+dcaf3e7d9e)"
   sodipodi:docname="tagdrop2026.svg"
   xmlns:inkscape="http://www.inkscape.org/namespaces/inkscape"
   xmlns:sodipodi="http://sodipodi.sourceforge.net/DTD/sodipodi-0.dtd"
   xmlns="http://www.w3.org/2000/svg"
   xmlns:svg="http://www.w3.org/2000/svg"><sodipodi:namedview
     id="namedview1"
     pagecolor="#ffffff"
     bordercolor="#000000"
     borderopacity="0.25"
     inkscape:showpageshadow="2"
     inkscape:pageopacity="0.0"
     inkscape:pagecheckerboard="0"
     inkscape:deskcolor="#d1d1d1"
     inkscape:document-units="mm"
     inkscape:zoom="0.26079027"
     inkscape:cx="924.11423"
     inkscape:cy="-61.351982"
     inkscape:window-width="1920"
     inkscape:window-height="1008"
     inkscape:window-x="1920"
     inkscape:window-y="0"
     inkscape:window-maximized="1"
     inkscape:current-layer="layer1" /><defs
     id="defs1" /><g
     inkscape:groupmode="layer"
     id="layer1"
     inkscape:label="Layer 1"><path
       style="display:inline;fill:#f3ede1"
       d="M 19.537248,134.94543 C 10.301793,133.25735 2.9910413,126.46482 0.59156455,117.3427 L -3.3e-7,115.09374 V 67.601038 20.108332 L 0.59156455,17.859374 C 2.8064768,9.4389199 9.4389192,2.8064775 17.859374,0.59156517 L 20.108332,2.8e-7 h 47.492706 47.492702 l 2.24896,0.59839412 c 8.54383,2.2733086 14.98767,8.7171526 17.26098,17.2609796 l 0.5984,2.248958 v 47.492706 47.492702 l -0.5984,2.24896 c -2.25555,8.47708 -8.56496,14.83475 -17.12869,17.25971 l -2.11666,0.59936 -46.963542,0.0449 c -37.701339,0.0361 -47.337076,-0.0233 -48.85754,-0.30127 z"
       id="path262157"
       sodipodi:nodetypes="cscccsscccsscccsscccc" /><path
       style="display:inline;fill:#2a3941"
       d="m 111.30771,115.70719 c -10.99451,0.0166 -24.93819,-0.99001 -35.2412,-2.54414 C 59.58999,110.6777 46.73201,106.62794 37.75711,101.0971 26.76814,94.325047 18.82645,81.940316 16.71077,68.276189 16.10151,64.341268 16.25781,56.042778 17.01482,52.133598 20.94246,31.851266 37.44739,15.949076 57.79489,12.842769 c 3.957,-0.604086 12.26417,-0.445546 16.15736,0.308369 13.95531,2.702423 26.30456,11.51447 32.54116,23.220388 6.12909,11.504113 9.91121,28.544073 11.08145,49.926499 0.37261,6.808017 0.45909,17.540185 0.19027,23.613035 -0.13775,3.11172 -0.2853,5.68677 -0.3279,5.72233 -0.0427,0.0356 -2.80088,0.0688 -6.12952,0.0738 z"
       id="path262151"
       sodipodi:nodetypes="sssssssssscs" /><path
       d="m 63.27294,61.115307 c 1.66075,-0.418181 3.30754,-2.064974 3.72572,-3.725719 0.42811,-1.700158 0.42811,-20.922255 0,-22.622413 -0.41818,-1.660745 -2.06497,-3.307538 -3.72572,-3.725718 -1.70015,-0.428105 -20.92225,-0.428105 -22.62241,0 -1.66074,0.41818 -3.30754,2.064973 -3.72572,3.725718 -0.4281,1.700158 -0.4281,20.922255 0,22.622413 0.3908,1.552013 2.0826,3.318135 3.55015,3.706116 1.51143,0.399579 21.22166,0.416526 22.79798,0.0196 z M 42.17215,46.078382 v -9.789583 h 9.78959 9.78958 v 9.789583 9.789582 h -9.78958 -9.78959 z m 14.5974,4.853784 c 0.43154,-0.390543 0.48385,-0.910314 0.48385,-4.807812 0,-3.69497 -0.0676,-4.444664 -0.43788,-4.853785 -0.39054,-0.431545 -0.91031,-0.483854 -4.80781,-0.483854 -3.69497,0 -4.44466,0.06763 -4.85378,0.437882 -0.43155,0.390543 -0.48386,0.910314 -0.48386,4.807812 0,3.69497 0.0676,4.444664 0.43788,4.853785 0.39055,0.431545 0.91032,0.483854 4.80782,0.483854 3.69496,0 4.44466,-0.06763 4.85378,-0.437882 z"
       style="display:inline;fill:#d9652b;fill-opacity:1"
       id="path1" /><path
       d="m 93.32814,49.472899 c 0.98878,-0.248978 1.96926,-1.229454 2.21823,-2.218236 0.2549,-1.012247 0.2549,-12.456788 0,-13.469035 -0.24897,-0.988782 -1.22945,-1.969257 -2.21823,-2.218235 -1.01224,-0.254888 -12.45679,-0.254888 -13.46904,0 -0.98877,0.248978 -1.96925,1.229453 -2.21823,2.218235 -0.25489,1.012247 -0.25489,12.456788 0,13.469035 0.23267,0.924045 1.23995,1.975567 2.1137,2.206565 0.89989,0.237903 12.63505,0.247993 13.57357,0.01167 z M 80.76505,40.520146 v -5.828567 h 5.82857 5.82857 v 5.828567 5.828566 h -5.82857 -5.82857 z m 8.69107,2.889868 c 0.25693,-0.232523 0.28808,-0.541987 0.28808,-2.862497 0,-2.199928 -0.0402,-2.646285 -0.26071,-2.889869 -0.23252,-0.256935 -0.54198,-0.288079 -2.8625,-0.288079 -2.19992,0 -2.64628,0.04027 -2.88986,0.260708 -0.25694,0.232523 -0.28808,0.541987 -0.28808,2.862497 0,2.199928 0.0402,2.646285 0.2607,2.889869 0.23253,0.256935 0.54199,0.288079 2.8625,0.288079 2.19993,0 2.64629,-0.04027 2.88987,-0.260708 z"
       style="display:inline;fill:#d9652b;fill-opacity:1;stroke-width:0.595385"
       id="path262158" /><path
       d="m 53.60177,89.960179 c 0.98878,-0.248978 1.96926,-1.229454 2.21823,-2.218236 0.2549,-1.012247 0.2549,-12.456788 0,-13.469035 -0.24897,-0.988782 -1.22945,-1.969257 -2.21823,-2.218235 -1.01224,-0.254888 -12.45679,-0.254888 -13.46904,0 -0.98877,0.248978 -1.96925,1.229453 -2.21823,2.218235 -0.25489,1.012247 -0.25489,12.456788 0,13.469035 0.23267,0.924045 1.23995,1.975567 2.1137,2.206565 0.89989,0.237903 12.63505,0.247993 13.57357,0.01167 z M 41.03868,81.007426 v -5.828567 h 5.82857 5.82857 v 5.828567 5.828566 h -5.82857 -5.82857 z m 8.69107,2.889868 c 0.25693,-0.232523 0.28808,-0.541987 0.28808,-2.862497 0,-2.199928 -0.0402,-2.646285 -0.26071,-2.889869 -0.23252,-0.256935 -0.54198,-0.288079 -2.8625,-0.288079 -2.19992,0 -2.64628,0.04027 -2.88986,0.260708 -0.25694,0.232523 -0.28808,0.541987 -0.28808,2.862497 0,2.199928 0.0402,2.646285 0.2607,2.889869 0.23253,0.256935 0.54199,0.288079 2.8625,0.288079 2.19993,0 2.64629,-0.04027 2.88987,-0.260708 z"
       style="display:inline;fill:#d9652b;fill-opacity:1;stroke-width:0.595385"
       id="path262159" /></g></svg>
